<?xml version="1.0" standalone="no"?>
<!DOCTYPE svg PUBLIC "-//W3C//DTD SVG 20010904//EN"
 "http://www.w3.org/TR/2001/REC-SVG-20010904/DTD/svg10.dtd">
<svg version="1.0" xmlns="http://www.w3.org/2000/svg"
 width="260.000000pt" height="260.000000pt" viewBox="0 0 260.000000 260.000000"
 preserveAspectRatio="xMidYMid meet">
<metadata>
Created by potrace 1.11, written by Peter Selinger 2001-2013
</metadata>
<g transform="translate(0.000000,260.000000) scale(0.100000,-0.100000)"
fill="#000000" stroke="none">
<path d="M302 2461 c-10 -6 -12 -54 -10 -224 l3 -217 -28 0 c-47 0 -85 -26
-96 -66 -12 -44 -6 -58 61 -135 26 -30 48 -58 48 -61 0 -3 -10 -8 -23 -11 -12
-4 -40 -24 -62 -47 -31 -32 -39 -47 -38 -75 2 -64 48 -116 126 -145 l27 -10 0
-113 0 -114 -38 -27 c-26 -18 -54 -54 -86 -111 -45 -81 -47 -87 -48 -167 -1
-65 3 -94 20 -132 12 -27 22 -64 22 -83 0 -48 33 -90 80 -104 26 -8 40 -19 44
-34 13 -51 98 -58 474 -38 l163 8 -3 -182 c-3 -206 -4 -204 74 -224 37 -10 55
-10 87 0 38 11 41 15 41 46 0 65 -43 135 -83 135 -19 0 -19 5 -12 113 4 61 8
113 9 114 1 1 51 4 111 5 l110 3 0 -137 c0 -165 3 -170 99 -176 60 -4 65 -3
81 21 32 50 -11 127 -71 127 -23 0 -24 2 -24 85 0 80 1 85 23 90 12 3 144 6
292 8 402 5 602 39 645 109 9 15 36 41 59 58 60 44 69 70 40 111 l-23 32 22
15 c58 39 -2 158 -85 169 -28 4 -48 1 -58 -7 -12 -10 -19 -10 -27 -2 -9 9 -8
12 4 12 23 0 156 127 178 171 34 67 36 110 5 159 -15 23 -46 61 -70 84 -39 39
-41 43 -25 54 34 21 110 148 115 193 13 104 -33 122 -305 116 -201 -5 -319
-27 -445 -82 -51 -23 -67 -26 -119 -20 l-61 7 -148 149 c-127 129 -153 150
-176 147 -20 -2 -41 9 -79 41 -42 36 -55 54 -69 100 -24 80 -34 89 -71 62 -17
-11 -33 -21 -38 -21 -4 0 -41 31 -83 68 -111 100 -120 105 -188 98 -94 -9
-106 -7 -133 19 -17 16 -41 26 -70 30 -120 12 -156 14 -168 6z m245 -144 c343
-296 558 -497 531 -497 -21 0 -131 83 -218 164 -36 34 -148 130 -248 215 -219
185 -215 181 -171 181 27 -1 49 -14 106 -63z m37 -152 c59 -49 129 -106 154
-125 26 -19 88 -74 137 -123 l90 -89 -94 6 c-52 3 -96 8 -98 10 -3 2 0 14 7
25 15 29 -5 27 -25 -2 -14 -22 -25 -25 -113 -30 -92 -6 -226 -27 -264 -42 -17
-7 -18 11 -18 280 l0 288 58 -54 c32 -30 107 -94 166 -144z m250 100 c36 -28
65 -58 66 -67 0 -25 -6 -23 -57 22 -25 22 -65 53 -89 69 -24 15 -41 31 -38 34
12 11 57 -11 118 -58z m-99 -9 c33 -23 87 -68 120 -102 33 -33 101 -89 150
-124 138 -97 305 -223 300 -228 -2 -2 -31 -1 -65 3 -68 8 -54 -3 -311 227
-172 152 -317 297 -279 277 14 -7 52 -31 85 -53z m291 -103 c9 -32 24 -73 35
-91 l19 -32 -58 39 c-106 74 -101 66 -62 106 19 19 37 35 42 35 4 0 15 -26 24
-57z m143 -143 c35 0 45 -6 83 -49 24 -27 63 -63 88 -79 25 -17 61 -47 79 -66
69 -71 2 -37 -157 80 -164 121 -192 144 -155 125 12 -6 40 -11 62 -11z m-869
-19 c0 -5 -12 -12 -27 -16 -56 -14 -67 -43 -36 -93 30 -48 183 -220 231 -261
84 -69 237 -167 300 -190 35 -13 61 -25 59 -27 -6 -7 -118 35 -156 57 -124 73
-385 311 -455 413 -42 62 -33 97 31 116 38 11 53 12 53 1z m0 -93 l-1 -53 -29
35 c-42 48 -38 67 13 69 14 1 17 -8 17 -51z m2109 -92 c25 -23 27 -53 6 -103
-19 -44 -62 -103 -76 -103 -5 0 6 21 26 47 30 39 35 54 33 88 -3 34 -8 43 -38
58 -31 16 -51 18 -165 12 -71 -4 -170 -15 -220 -25 -49 -11 -143 -31 -208 -44
-65 -14 -130 -32 -145 -40 -15 -8 -119 -58 -231 -111 -111 -52 -241 -120 -287
-150 -47 -30 -87 -55 -91 -55 -8 0 38 42 74 67 61 44 435 225 553 269 260 96
355 114 587 111 142 -2 164 -5 182 -21z m-1919 -25 c0 -4 -19 -11 -43 -14 -24
-3 -51 -9 -60 -13 -9 -3 -17 -2 -17 4 0 5 21 14 48 20 63 13 72 13 72 3z m743
-8 c-7 -2 -21 -2 -30 0 -10 3 -4 5 12 5 17 0 24 -2 18 -5z m1120 -9 c30 -11
20 -57 -23 -111 -22 -28 -51 -58 -64 -66 -22 -15 -27 -15 -56 -1 -18 10 -29
22 -26 29 7 20 -11 79 -33 104 -15 17 -29 21 -77 21 -58 0 -131 -17 -175 -40
-23 -13 -118 -4 -103 10 13 11 214 51 309 60 84 9 219 6 248 -6z m-1656 -44
c-7 -37 -6 -54 3 -65 19 -23 27 -11 34 56 l7 62 162 -7 162 -7 93 -92 c50 -50
92 -94 92 -97 0 -3 -30 -20 -66 -38 -36 -18 -91 -52 -121 -75 -31 -23 -63 -48
-73 -55 -14 -10 -31 -7 -101 17 -46 16 -110 40 -142 52 -53 22 -58 26 -52 49
18 73 17 80 -10 121 -33 47 -101 99 -130 99 -28 0 -64 -27 -76 -57 l-9 -24
-40 33 c-40 31 -41 32 -18 41 34 12 185 35 244 36 l51 1 -10 -50z m727 35
c125 -18 180 -39 74 -29 -88 8 -251 41 -212 43 17 0 79 -6 138 -14z m-177 -77
c57 -48 80 -74 72 -79 -11 -7 -76 43 -174 133 -18 17 -18 18 -1 18 10 0 56
-32 103 -72z m-933 53 c3 -5 -5 -11 -17 -15 -13 -3 -36 -15 -50 -27 -34 -26
-36 -77 -5 -126 20 -34 21 -35 1 -25 -24 13 -50 50 -58 85 -6 21 0 33 29 62
45 45 89 65 100 46z m1055 -15 c93 -18 102 -27 56 -55 -44 -26 -56 -23 -115
29 -50 44 -47 46 59 26z m764 -14 c23 -25 37 -67 27 -82 -11 -18 -27 -5 -35
30 -8 36 -36 46 -98 35 -100 -16 -112 -17 -102 -7 14 15 111 41 156 41 22 1
42 -6 52 -17z m-283 -43 c20 -7 18 -8 -10 -3 -93 17 -144 31 -125 35 18 4 69
-8 135 -32z m-1550 -51 l0 -71 -24 23 c-37 34 -44 79 -16 102 12 10 26 18 31
18 5 0 9 -32 9 -72z m133 0 c34 -35 70 -80 79 -101 17 -38 17 -43 -18 -245
l-37 -207 -41 -36 -41 -37 -7 37 c-8 44 -10 651 -2 651 3 0 33 -28 67 -62z
m1290 46 c26 -3 47 -9 47 -13 0 -4 -14 -15 -30 -25 -30 -17 -31 -17 -65 11
-37 31 -44 47 -17 39 9 -3 38 -8 65 -12z m-1128 -8 c31 -13 35 -20 35 -50 0
-45 -13 -52 -50 -26 -23 17 -30 29 -30 56 0 39 -1 39 45 20z m1505 -2 c0 -13
-7 -15 -37 -9 -58 10 -64 25 -10 25 37 0 47 -4 47 -16z m-57 -34 c274 -80 404
-178 389 -295 -4 -34 -17 -52 -89 -124 -46 -46 -86 -81 -89 -78 -4 3 19 29 49
57 110 100 135 210 64 277 -40 39 -155 96 -233 118 -91 25 -261 83 -244 84 8
1 77 -17 153 -39z m-348 -52 c50 -46 106 -94 124 -108 l33 -25 -26 -14 c-25
-14 -28 -12 -93 50 -86 82 -163 164 -163 172 0 24 48 -4 125 -75z m131 59
c-10 -7 -34 -22 -52 -34 -21 -14 -36 -18 -40 -12 -7 12 -8 11 36 38 39 23 92
31 56 8z m-249 -59 c26 -29 79 -82 118 -119 l70 -67 -28 -13 c-26 -12 -30 -9
-84 43 -32 30 -91 78 -130 107 -40 29 -73 56 -73 59 0 10 52 41 67 42 7 0 34
-23 60 -52z m376 33 c99 -35 99 -33 12 -90 l-78 -52 -54 43 c-30 24 -55 48
-56 53 -2 10 88 63 109 64 6 1 36 -8 67 -18z m351 -26 c-4 -8 -11 -15 -16 -15
-6 0 -5 6 2 15 7 8 14 15 16 15 2 0 1 -7 -2 -15z m-827 -77 c38 -35 97 -85
131 -113 34 -27 62 -53 62 -56 0 -3 -11 -11 -24 -17 -22 -10 -33 -2 -151 110
-90 87 -122 124 -113 129 21 14 23 12 95 -53z m620 35 c-8 -8 -84 -57 -168
-108 -85 -51 -183 -111 -219 -132 -36 -22 -99 -59 -140 -84 -41 -24 -111 -67
-155 -95 -131 -85 -411 -219 -560 -269 -38 -13 -110 -38 -158 -55 -82 -29
-103 -32 -253 -37 -150 -6 -164 -5 -158 10 3 9 11 14 16 11 5 -4 53 -6 105 -5
88 2 192 21 283 51 136 47 209 76 445 181 138 62 166 77 316 169 66 41 156 95
199 120 187 108 220 127 312 188 54 35 100 67 103 72 3 4 14 6 26 3 18 -5 19
-8 6 -20z m58 -3 c-3 -5 -16 -15 -28 -21 -19 -9 -19 -8 3 10 28 23 34 26 25
11z m-785 -63 c26 -29 75 -72 107 -96 l60 -43 -17 -51 c-24 -73 -37 -76 -156
-29 -121 48 -297 122 -301 126 -9 8 227 145 250 146 5 0 30 -24 57 -53z m840
44 c0 -5 -30 -26 -67 -47 -38 -20 -82 -48 -99 -61 -17 -12 -39 -23 -49 -23
-11 0 19 25 65 56 123 81 150 95 150 75z m87 -40 c89 -65 102 -112 53 -197
-26 -46 -77 -100 -86 -91 -2 2 0 18 5 35 11 37 10 37 -49 47 -42 7 -131 47
-174 80 -20 15 -20 15 0 29 10 8 44 29 74 47 30 18 71 42 90 55 19 13 38 23
41 23 3 1 24 -12 46 -28z m-246 -10 c-31 -23 -90 -57 -76 -44 13 14 88 63 95
63 3 0 -6 -9 -19 -19z m-1273 -61 l123 -47 -181 -118 c-100 -64 -183 -115
-185 -114 -1 2 1 27 6 54 4 28 15 91 23 142 17 97 46 149 76 136 8 -3 70 -27
138 -53z m136 -10 c83 -26 284 -103 334 -129 21 -11 69 -29 106 -41 37 -12 66
-24 64 -26 -10 -10 -288 88 -473 166 -135 58 -142 64 -31 30z m1090 -64 c44
-30 111 -69 149 -87 50 -25 67 -38 67 -54 0 -29 -10 -40 -53 -60 l-38 -18 -59
58 c-32 31 -61 69 -64 84 -9 43 -45 92 -76 104 -30 11 -40 27 -19 27 7 0 48
-24 93 -54z m-1083 -5 c-27 -21 -89 -58 -81 -48 14 15 86 66 95 66 6 0 -1 -8
-14 -18z m80 -12 c23 -12 145 -57 287 -106 l102 -35 -42 -30 c-39 -29 -74 -47
-253 -128 -38 -17 -88 -40 -110 -50 -72 -34 -179 -77 -220 -90 -22 -6 -60 -19
-85 -27 -25 -9 -67 -19 -95 -24 -27 -5 -72 -13 -100 -18 -27 -5 -65 -6 -82 -4
-30 5 -33 9 -33 42 0 31 7 42 49 79 28 23 53 38 56 32 14 -22 85 -8 218 46
150 59 190 81 184 98 -6 18 -66 7 -158 -30 -48 -19 -96 -34 -108 -34 -12 0
-31 -5 -42 -11 -39 -20 -40 -3 -2 23 164 111 409 276 411 277 2 1 12 -4 23
-10z m890 -41 c94 -75 271 -242 261 -246 -5 -1 -35 4 -67 13 -48 12 -69 25
-123 77 -139 133 -188 188 -178 198 19 19 42 10 107 -42z m40 35 c13 -15 12
-15 -8 -4 -24 12 -29 21 -14 21 5 0 15 -7 22 -17z m-91 -129 c58 -59 97 -104
87 -100 -11 3 -31 9 -45 13 -15 3 -66 41 -114 84 -85 76 -86 78 -65 93 12 8
24 15 27 15 3 1 53 -47 110 -105z m-1062 53 c-31 -25 -98 -66 -83 -49 13 13
98 71 105 71 3 0 -7 -10 -22 -22z m-496 -71 c-76 -80 -106 -185 -82 -286 8
-34 9 -55 2 -62 -14 -14 -32 44 -39 127 -5 65 -3 75 27 135 37 75 113 161 118
134 2 -9 -9 -30 -26 -48z m1393 -36 c61 -16 130 -36 155 -45 25 -9 122 -36
216 -60 184 -47 308 -60 324 -34 14 21 -18 49 -57 49 -18 0 -33 5 -33 10 0 6
18 10 39 10 49 0 91 -43 84 -84 -5 -26 -7 -26 -92 -26 -93 0 -204 20 -253 45
-17 8 -59 20 -93 25 -34 5 -88 19 -121 30 -32 12 -115 37 -184 56 -69 19 -131
37 -138 40 -22 7 -1 26 22 20 11 -4 71 -20 131 -36z m-1370 -103 c-6 -97 -8
-104 -41 -141 -42 -48 -48 -37 -42 72 5 79 22 127 61 170 28 31 31 20 22 -101z
m315 108 c0 -7 -91 -67 -95 -63 -2 2 17 18 43 35 51 35 52 35 52 28z m985 -40
c263 -72 290 -85 422 -202 150 -134 168 -151 161 -158 -3 -3 -79 -12 -169 -20
-90 -8 -200 -19 -244 -24 -45 -6 -215 -7 -385 -4 -190 3 -361 1 -455 -6 -126
-10 -297 -21 -515 -33 l-45 -3 -3 43 -3 42 48 0 c26 0 92 7 147 15 205 31 659
216 846 345 30 21 57 38 60 39 3 1 64 -15 135 -34z m617 -57 c27 -39 9 -33
-25 7 -16 19 -25 40 -21 46 5 8 10 6 17 -7 5 -11 19 -31 29 -46z m-1817 -72
c-33 -30 -62 -52 -65 -49 -3 2 22 28 55 58 33 29 62 51 65 49 2 -3 -23 -29
-55 -58z m1706 -57 c79 -70 139 -135 139 -150 0 -14 -16 -1 -94 76 -34 33 -83
80 -111 103 -39 33 -44 41 -25 36 14 -4 55 -33 91 -65z m127 8 c6 -5 12 -13
12 -18 0 -5 11 -27 25 -49 14 -22 25 -50 25 -62 -1 -22 -1 -22 -12 -3 -6 11
-43 50 -82 87 l-70 67 44 -6 c25 -3 51 -10 58 -16z m105 -25 c32 -33 33 -43 9
-58 -16 -10 -22 -5 -46 37 -25 45 -26 49 -8 49 10 0 30 -13 45 -28z m-2050
-29 c-64 -83 -71 -142 -20 -173 l32 -20 -35 6 c-19 4 -41 11 -47 17 -16 12
-17 77 -2 77 5 0 8 4 5 9 -4 5 14 34 40 65 50 63 72 77 27 19z"/>
<path d="M857 1623 c-4 -3 -7 -18 -7 -32 0 -19 19 -44 70 -93 73 -71 89 -78
110 -53 14 17 -17 62 -99 138 -50 47 -62 53 -74 40z"/>
</g>
</svg>
